<?xml version="1.0" encoding="UTF-8"?> <svg xmlns="http://www.w3.org/2000/svg" id="Camada_2" viewBox="0 0 1226.27401 519.45211"><defs><style>.cls-1{fill:#589dd6;}.cls-2{fill:#fab84d;}.cls-3{fill:#34b088;}.cls-4{fill:#ea5c2d;}.cls-5{fill:#797b90;}.cls-6{fill:#f08128;}.cls-7{fill:#f6a139;}.cls-8{fill:#3c7bbf;}</style></defs><g id="Camada_1-2"><g id="Camada_1-2"><path class="cls-8" d="M1012.25989,36.27467l8.1618-30.59247c-66.03735-14.06673-134.95728-1.78029-192.06561,34.23976l15.81964,27.33224c49.87012-31.78518,110.15924-42.89705,168.08417-30.97953Z"></path><path class="cls-3" d="M844.17572,67.2542l-15.81964-27.33224c-50.71149,31.76552-88.84253,80.129-107.89819,136.85276-2.73041,8.28679,1.77393,17.218,10.06073,19.94843,.29651,.0977,.59589,.1866,.89771,.26657l.02496,.00665c8.03839,2.13387,16.35022-2.3513,18.97943-10.24155,16.61865-49.40877,49.72076-91.60091,93.755-119.50063Z"></path><path class="cls-4" d="M750.84705,373.59228h0c-7.55664,4.35172-10.15479,14.00534-5.80304,21.56201,.05676,.09863,.11469,.19669,.17358,.29407,32.30109,52.8801,82.51318,92.40652,141.49963,111.38708l8.16199-30.59283c-51.10626-16.8403-94.57849-51.26962-122.67822-97.15921-4.44293-7.32938-13.92651-9.76807-21.35394-5.49112Z"></path><path class="cls-1" d="M1020.42169,5.6822l-8.1618,30.59247c4.36383,.89663,8.72754,1.88806,13.08765,3.05131,55.30786,14.68029,103.04175,49.68544,133.66711,98.02345l27.33215-15.81954c-34.82031-55.59252-89.4585-95.8822-152.85864-112.71663-4.35291-1.16141-8.7085-2.2051-13.06647-3.13106Z"></path><path class="cls-2" d="M1186.9425,318.52124l30.51306,8.14066c18.67676-69.7244,7.40051-144.08002-31.10876-205.132l-27.33215,15.81953c34.30786,53.80049,44.44128,119.53714,27.92786,181.17181Z"></path><path class="cls-6" d="M907.74756,480.11621c-4.36017-1.16324-8.63782-2.47726-12.86835-3.87357l-8.16199,30.5928c4.24005,1.366,8.53662,2.63062,12.88959,3.79382,63.36017,16.98456,130.80652,9.26617,188.69165-21.59323l-15.8197-27.33246c-50.63391,26.65833-109.461,33.23364-164.7312,18.41263Z"></path><path class="cls-7" d="M1072.47876,461.70358l15.8197,27.33246c63.80334-33.75565,110.61987-92.61255,129.1571-162.37418l-30.51306-8.14066c-16.38342,61.66931-57.91565,113.6218-114.46375,143.18237Z"></path><circle class="cls-5" cx="723.07019" cy="292.63885" r="13.91504"></circle><path class="cls-5" d="M794.74988,269.69931c-.09137-5.24228,.95496-10.44205,3.06683-15.241,1.81207-4.17241,4.6015-7.84758,8.13263-10.71526,3.33447-2.64357,7.10303-4.6875,11.13745-6.04054,4.08026-1.35913,8.35461-2.0448,12.65527-2.03011,7.57404,0,14.11536,1.61826,19.62402,4.8548v12.93164c-5.15973-3.60327-11.33325-5.46904-17.625-5.32664-2.80908-.01828-5.60498,.38562-8.29407,1.19818-2.58081,.79076-5.00562,2.02153-7.16736,3.638-2.25507,1.72972-4.04138,3.99628-5.19623,6.59311-2.55975,6.04755-2.58325,12.86981-.06519,18.93484,1.11804,2.58499,2.85968,4.85239,5.06897,6.59918,2.13593,1.64923,4.53784,2.9216,7.10211,3.76221,2.67584,.88092,5.47699,1.32123,8.29407,1.30368,6.50757,.04471,12.90729-1.66217,18.52826-4.94168v13.05573c-6.60358,2.9993-13.79419,4.4841-21.04565,4.34567-3.38416,.00717-6.7561-.4057-10.03857-1.22922-3.27399-.82285-6.40723-2.12845-9.29675-3.87393-2.90265-1.72327-5.5083-3.90341-7.71667-6.45645-2.30963-2.74274-4.08289-5.89539-5.22723-9.29355-1.32831-3.88321-1.9834-7.96481-1.93689-12.06866Z"></path><path class="cls-5" d="M866.60291,294.05136v-89.69284h7.31378c3.76947-.00003,6.8252,3.05569,6.82526,6.82515v89.69295h-7.31378c-3.76947,0-6.82526-3.05579-6.82526-6.82526Z"></path><path class="cls-5" d="M900.26038,283.54343c-3.82001-9.24133-3.82001-19.6203,0-28.86163,1.71436-4.05675,4.33502-7.66699,7.66101-10.55389,3.22876-2.72986,6.92535-4.85214,10.91077-6.26401,4.11133-1.46577,8.44574-2.20729,12.81055-2.19157,4.40259-.01965,8.77545,.72179,12.92548,2.19157,4.00641,1.41537,7.72687,3.53687,10.98529,6.26401,3.34839,2.87254,5.98102,6.48615,7.68878,10.55389,3.79523,9.24625,3.79523,19.61539,0,28.86163-1.71063,4.07501-4.34241,7.69812-7.68878,10.58493-3.24927,2.7478-6.97174,4.88095-10.98529,6.2951-4.14893,1.4747-8.52228,2.21829-12.92548,2.19766-4.36536,.01669-8.70032-.72699-12.81055-2.19766-3.99255-1.41068-7.69122-3.54465-10.91077-6.2951-3.32391-2.90112-5.94379-6.5209-7.66101-10.58493Zm16.8335-29.31488c-3.70624,3.72485-5.55945,8.68726-5.55951,14.88718,0,6.19571,1.85315,11.16635,5.55951,14.91199,3.70935,3.7435,8.55896,5.61624,14.54871,5.61832,5.9505,0,10.77948-1.87277,14.48676-5.61832,3.7063-3.7435,5.55939-8.71414,5.55939-14.91199,0-6.2019-1.85309-11.16431-5.55939-14.88718-3.70935-3.71866-8.53827-5.57903-14.48676-5.5811-5.99072,.00002-10.84033,1.86038-14.54871,5.58112v-.00002Z"></path><path class="cls-5" d="M981.83557,276.66486v-39.25417h8.57874c3.07092,.00003,5.5603,2.4895,5.5603,5.56039v31.98027c0,5.09073,1.26959,8.89841,3.80878,11.42307,2.53302,2.51437,6.18024,3.77667,10.94165,3.7868,3.77423-.0152,7.45337-1.18488,10.54346-3.35199,2.82867-1.97043,5.28265-4.43036,7.24615-7.26379v-42.13475h7.31372c3.76941,.00005,6.8252,3.05579,6.8252,6.82524v56.64069h-7.05225c-6.54932,0-5.53784-8.61069-5.53784-8.61069-2.63708,3.10101-5.87708,5.63348-9.52325,7.44354-3.89197,1.96155-8.19794,2.96008-12.55597,2.91168-8.22272,0-14.63568-2.40048-19.23907-7.20151-4.60651-4.79883-6.90973-11.05042-6.90961-18.75479Z"></path><path class="cls-5" d="M1062.84875,285.86533c-5.06165-10.59497-5.06165-22.91043,0-33.5054,2.46887-4.98967,6.27942-9.19255,11.00403-12.13699,4.95935-3.07825,10.70239-4.65843,16.53845-4.55058,9.52637,0,17.17798,3.31311,22.95459,9.9393v-37.31714h7.31372c3.76941,.00005,6.8252,3.05579,6.8252,6.82524v85.75687h-5.76172c-3.76941-.00003-6.8252-3.05579-6.8252-6.82523v-3.24438c-10.42004,13.51324-29.82178,16.02078-43.33508,5.60074-3.65576-2.819-6.63342-6.42139-8.71411-10.54239l.00012-.00003Zm15.90222-31.89133c-3.70642,3.89255-5.55957,8.93979-5.55945,15.14172,0,6.19571,1.85315,11.25122,5.55945,15.16653,3.66028,3.89938,8.81812,6.04028,14.16382,5.87909,4.44238,.08017,8.79321-1.26678,12.41321-3.8429,3.43909-2.38959,6.14783-5.68619,7.82532-9.52328v-15.42719c-1.70581-3.78598-4.41113-7.03546-7.82532-9.39915-3.62195-2.57152-7.97192-3.91603-12.41321-3.83669-5.33911-.16599-10.49402,1.96021-14.1637,5.84186h-.00012Z"></path><path class="cls-5" d="M467.00824,334.26755c1.85312,1.3685,3.82657,2.76181,5.87955,4.16949,.06287-1.08246,.05975-2.18283,.16458-3.25381,.12918-1.30988,.37399-2.60748,.56415-3.91116,.20593-1.41779,.37167-2.84836,.64758-4.24249,.28708-1.44916,.68942-2.87744,1.05301-4.31314,.31271-1.23267,.58276-2.48209,.94949-3.69189,.41867-1.3855,.94592-2.74286,1.43756-4.10974,.44348-1.22968,.84894-2.4783,1.34711-3.68073,.52383-1.26724,1.14969-2.49911,1.73785-3.74429,.59219-1.25012,1.14853-2.52014,1.79968-3.73566,.63553-1.18854,1.37079-2.33466,2.06723-3.49789,.7178-1.19748,1.39883-2.41934,2.17331-3.57755,.85559-1.2785,1.81934-2.50381,2.7525-3.74429,.72171-.96063,1.39642-1.95782,2.15811-2.88593,1.74832-2.12906,3.60464-4.19949,5.59317-6.18799l.005-.0054c13.23044-13.22226,30.4931-21.65387,49.0553-23.96002,3.01147-.38062,6.04114-.59991,9.07599-.65689,.05347-.00116,.10583-.00735,.15985-.00815,6.08685-.07681,12.16418,.50449,18.12616,1.73373,2.22601-1.01431,5.79419-2.64047,11.54102-5.25908,6.48798-2.95627,12.16101-5.92609,17.08533-8.78456-.03381-.01633-.06714-.03493-.10089-.0508,1.64819-.9635,3.27667-1.95712,4.85596-3.01993,41.23932-27.68529,52.22699-83.55972,24.54169-124.79903-27.68524-41.23931-83.55969-52.22701-124.79901-24.54172-41.23929,27.68529-52.22699,83.55972-24.54172,124.79903,7.57608,11.28514,17.61154,20.70627,29.35214,27.55534-1.20001,.54875-2.392,1.12486-3.56766,1.71855-1.59708,.8233-3.15646,1.698-4.70499,2.59816-1.793,1.03085-3.58362,2.08356-5.3223,3.23358-1.20633,.79893-2.35373,1.6712-3.52548,2.517-1.69568,1.22968-3.40872,2.4259-5.05658,3.78152-2.76572,2.25626-5.42859,4.63287-7.9538,7.1507-.03839,.03839-.07953,.06744-.11792,.10583-.06757,.06757-.12262,.14249-.19019,.2103-2.41257,2.42545-4.70609,4.96304-6.88052,7.61282-1.03061,1.25436-1.92645,2.57712-2.89111,3.86609-1.12131,1.49963-2.28305,2.96512-3.32599,4.5238-1.02753,1.53571-1.9184,3.12967-2.85812,4.70499-.845,1.41537-1.73477,2.79871-2.51508,4.25601-.79849,1.49307-1.47986,3.02762-2.1926,4.55206-11.27011-14.6246-17.3764-32.57153-17.3642-51.03487h-.10443c-.87738-58.96358-49.38806-106.05174-108.35165-105.17435-39.6402,.58984-75.69031,23.0939-93.62943,58.44757h-.00195c-26.4875-52.60358-90.60349-73.77485-143.20706-47.28735-20.60671,10.37611-37.29259,27.15536-47.55353,47.81967h-.002c-6.50765-12.95961-15.57471-24.46562-26.65349-33.82304-4.1291,1.16582-8.17747,2.60066-12.11913,4.29535-4.00105,1.73561-7.87723,3.74599-11.60075,6.01671,24.12906,15.28415,38.8601,41.76242,39.1242,70.3237-.002,.26076-.03919,.51254-.03919,.77365h2.6916c3.57659-.51231,7.12437-1.20883,10.62918-2.08676,3.2007-.82156,6.35431-1.8167,9.44685-2.981,2.7998-46.4241,42.70366-81.78859,89.12775-78.98878,42.1163,2.54001,75.8519,35.85603,78.91876,77.93724-.11562,2.03551-.30925,4.05424-.30925,6.11928h2.39751c3.5766-.51224,7.12439-1.20876,10.62918-2.08676,3.32315-.85278,6.59595-1.89102,9.80299-3.1098-.0206-.31477-.02988-.63173-.04819-.94719,3.40994-46.42389,43.80826-81.29358,90.23215-77.88364,44.02316,3.23361,78.09412,39.88562,78.11008,84.02739h.07883c.23499,20.54475,6.44504,40.57692,17.87241,57.65199,3.40436,5.04529,7.23218,9.7915,11.44199,14.18719,.70975,.72009,1.45001,1.45389,2.24893,2.21478,4.62814,4.35291,9.5217,8.41476,14.65247,12.16214Zm25.65024-145.05c-11.01718-35.45062,8.79004-73.12022,44.24069-84.13738,35.45062-11.01717,73.12018,8.79005,84.13739,44.24067,11.01715,35.45062-8.7901,73.12022-44.24072,84.13739-6.42322,1.9962-13.10974,3.01697-19.83606,3.0282-29.46967,.01672-55.52444-19.13652-64.30133-47.26881l.00003-.00006Z"></path><path class="cls-5" d="M663.10822,332.13425c-.14081-1.33127-.37946-2.62759-.56921-3.9437-.34601-2.40256-.73218-4.79501-1.24243-7.17426-.31842-1.48343-.69446-2.93878-1.07397-4.39853-.56921-2.19617-1.20166-4.37244-1.91254-6.53601-.4621-1.40115-.9386-2.79022-1.45697-4.16492-.83539-2.22525-1.77002-4.41324-2.75903-6.59-.54517-1.19543-1.06897-2.39752-1.65649-3.56927-1.16864-2.33774-2.47083-4.61771-3.82141-6.88214-.55646-.93042-1.06946-1.88531-1.65295-2.79709-1.56458-2.448-3.28491-4.8187-5.06866-7.16-.49701-.65219-.94476-1.34058-1.45618-1.9808-2.05609-2.57288-4.2782-5.05222-6.60669-7.46948-.31268-.32477-.58929-.68219-.90637-1.00269-.15826-.16019-.289-.33673-.44855-.49625-1.48138-1.48135-3.08582-2.75366-4.63043-4.12949-1.1438-1.01855-2.20813-2.12286-3.39502-3.0921l-.03412,.03412c-4.21143-3.40933-8.67377-6.49643-13.34918-9.23505-8.91876,3.44826-26.33459,7.70325-35.32751,9.79999,11.89392,2.69232,23.05646,7.94931,32.7077,15.40363l-.0155,.01553c2.22089,1.71533,4.32007,3.57663,6.35834,5.5,.28741,.27167,.59601,.50601,.88031,.78226,6.68658,6.48953,12.2561,14.03836,16.48389,22.34201,.2572,.50751,.46948,1.03101,.71582,1.54239,1.03717,2.14249,1.99353,4.32971,2.84949,6.569,.34961,.91962,.65576,1.85001,.97198,2.77893,.64874,1.89505,1.23114,3.81906,1.74719,5.772,.28326,1.08063,.55402,2.16284,.79388,3.25201,.435,1.9707,.77875,3.974,1.07281,5.99435,.14667,1.00879,.32635,2.01379,.43658,3.02649,.34583,3.04199,.52649,6.10052,.5412,9.16208,0,2.81262-.15167,5.5896-.42047,8.33163-.11798,1.19864-.34692,2.38477-.51648,3.57822-.21735,1.5311-.40051,3.07349-.69849,4.57654-.27191,1.37045-.65527,2.71964-.99554,4.078-.32983,1.31345-.61969,2.64276-1.01038,3.93057-.39777,1.31415-.90051,2.6008-1.36377,3.89828-.46649,1.30219-.89673,2.621-1.42444,3.89255-.49658,1.19934-1.09143,2.36487-1.64557,3.54477-.62,1.31699-1.20782,2.65137-1.89264,3.92978-.59906,1.11945-1.29401,2.19846-1.94739,3.29575-.75519,1.26691-1.47723,2.55554-2.29547,3.77853-.80011,1.19461-1.70502,2.33728-2.57251,3.49857-.77759,1.0419-1.51086,2.11893-2.33508,3.12314-1.67468,2.03781-3.45947,4.01242-5.35449,5.92374-.14008,.14124-.27826,.284-.41949,.4245-1.92682,1.91483-3.92059,3.71698-5.98151,5.40652-.97705,.80164-2.02551,1.51361-3.03821,2.27179-1.19073,.89127-2.3634,1.8186-3.58899,2.63885-1.19312,.79852-2.45154,1.50159-3.68695,2.23959-1.12787,.67319-2.23767,1.38715-3.38916,2.0033-1.25061,.66971-2.5567,1.24356-3.84369,1.8512-1.20862,.56921-2.40289,1.17682-3.63177,1.68555-1.24164,.51486-2.53058,.935-3.80127,1.39136-1.32819,.47565-2.64539,.98938-3.99103,1.39609-1.25208,.37946-2.54462,.66034-3.82037,.98236-1.3938,.3512-2.7793,.74307-4.18579,1.022-1.45276,.28799-2.94348,.46255-4.42218,.67484-1.24475,.1788-2.48242,.41556-3.73254,.53851-2.69208,.26352-5.41858,.40854-8.17889,.41327-.09308,.00034-.18622,.00034-.27936,0-2.76019-.0047-5.48639-.14941-8.17847-.4129-1.25354-.12332-2.49487-.36075-3.74316-.54047-1.47479-.21182-2.96198-.38568-4.41083-.67276-1.41193-.27972-2.80261-.67322-4.20135-1.02591-1.27032-.32086-2.5578-.60025-3.8045-.97821-1.35333-.40936-2.67883-.92535-4.01434-1.40411-1.26251-.45361-2.54218-.8703-3.77563-1.38217-1.24127-.51328-2.448-1.12674-3.66821-1.70215-1.27423-.6022-2.56793-1.17062-3.80646-1.83374-1.1698-.62585-2.29773-1.34988-3.44318-2.03473-1.216-.72751-2.45532-1.41971-3.63052-2.20584-1.25989-.84314-2.46588-1.79337-3.6889-2.7114-.97858-.73413-1.99323-1.42245-2.93835-2.19769-2.1279-1.74759-4.19708-3.60229-6.18491-5.59006-1.98654-1.9866-3.84012-4.05508-5.58701-6.1814-.78836-.96109-1.48917-1.99323-2.23535-2.98926-.90363-1.20554-1.8414-2.39359-2.67218-3.63489-.79501-1.18875-1.49619-2.44211-2.23145-3.67245-.67587-1.13223-1.39252-2.24731-2.01099-3.40366-.66473-1.24081-1.23392-2.53714-1.83728-3.814-.57462-1.21991-1.18842-2.4259-1.70142-3.66592-.5083-1.2261-.9227-2.49841-1.3739-3.75323-.48233-1.34369-1.00076-2.67725-1.41241-4.03885-.3736-1.23267-.64954-2.505-.96729-3.7605-.35696-1.41434-.75391-2.82089-1.03671-4.24835-.28101-1.41974-.45084-2.87674-.65964-4.32086-.185-1.27817-.42636-2.54932-.55289-3.83325-.25491-2.60394-.38812-5.24121-.39969-7.91183-.00116-.28247,.00082-.56381,.00241-.84628,.0007-.13113,.01862-.25766,.01974-.38831-7.91931-3.40021-16.67401-7.38422-21.87479-10.44727-.03101,.25064-.0831,.49475-.10791,.74768-.34064,3.4541-.51547,6.91684-.52463,10.38818,0,.04929-.00735,.09698-.00735,.14676,0,.04495,.00668,.08838,.00668,.13342,.00424,3.47272,.17938,6.94012,.5253,10.40219,.15601,1.59467,.45474,3.14325,.68057,4.71655,.26926,1.87415,.48773,3.7529,.85675,5.61337,.3573,1.80429,.85248,3.55374,1.29977,5.32391,.40442,1.60477,.75586,3.21771,1.23587,4.8063,.52612,1.737,1.17715,3.41446,1.7883,5.11279,.57001,1.5896,1.09268,3.18979,1.7406,4.7562,.65689,1.58386,1.42712,3.10291,2.15701,4.64725,.76089,1.61407,1.47791,3.24185,2.32419,4.8241,.79422,1.4826,1.69833,2.89145,2.55933,4.33099,.92569,1.54971,1.80151,3.11844,2.81262,4.62973,1.07101,1.60092,2.26248,3.10834,3.41608,4.64642,.93582,1.24707,1.80072,2.52789,2.79825,3.74234,4.46982,5.44797,9.46481,10.44293,14.91278,14.91272,1.21176,.99487,2.4899,1.85864,3.73383,2.79214,1.54123,1.15622,3.05099,2.34937,4.6554,3.42227,1.50894,1.00961,3.07648,1.88449,4.6239,2.80917,1.44135,.86215,2.85181,1.7674,4.33636,2.56241,1.58224,.84619,3.20956,1.56329,4.82376,2.32419,1.54419,.72977,3.06323,1.5,4.64709,2.15686,1.56836,.6492,3.17084,1.17221,4.76251,1.74301,1.69556,.60989,3.36975,1.25943,5.10382,1.78519,1.59235,.48154,3.21002,.83344,4.81897,1.23886,1.7674,.44623,3.51343,.94052,5.31458,1.29745,1.85901,.36868,3.73615,.58749,5.60913,.85641,1.57446,.22583,3.12415,.52499,4.72009,.68091,7.00665,.69034,14.06415,.69034,21.0708,0,1.59479-.15594,3.14368-.45474,4.7171-.68057,1.87402-.26926,3.75244-.48807,5.61292-.85675,1.7984-.35614,3.54132-.85007,5.30603-1.29553,1.61224-.40579,3.23254-.75861,4.828-1.24127,1.7298-.52417,3.39893-1.17255,5.0899-1.78049,1.59674-.57278,3.20459-1.09775,4.77802-1.74878,1.5741-.65302,3.0838-1.41895,4.61884-2.14377,1.62451-.76514,3.26233-1.48688,4.85431-2.33856,1.4679-.78607,2.86273-1.68234,4.2887-2.53448,1.56409-.9335,3.14716-1.81784,4.67206-2.83823,1.57843-1.05579,3.06335-2.23111,4.58044-3.36758,1.26953-.95099,2.57324-1.83255,3.80908-2.84799,2.70239-2.21741,5.29297-4.55893,7.77173-7.02448,.01794-.01785,.03802-.03299,.05603-.05084,.02905-.02911,.0531-.06171,.08215-.09119,2.45496-2.46039,4.7851-5.0383,6.99042-7.7338,1.02399-1.24667,1.91449-2.56125,2.87329-3.84247,1.12671-1.50586,2.29352-2.97836,3.34113-4.54437,1.02856-1.5369,1.92059-3.13242,2.86078-4.70926,.84387-1.41354,1.73212-2.79526,2.51166-4.25027,.85828-1.60443,1.58539-3.25381,2.3559-4.89087,.71863-1.52328,1.47949-3.02063,2.12708-4.58243,.65887-1.59238,1.19116-3.21967,1.76971-4.836,.59943-1.67041,1.24011-3.31793,1.75775-5.02509,.49115-1.6235,.85089-3.27255,1.26337-4.91339,.43726-1.73801,.92499-3.4541,1.27576-5.22461,.37598-1.89542,.60022-3.80865,.87262-5.71844,.2193-1.53882,.51257-3.05212,.66553-4.61115,.70721-7.28409,.66797-14.6214-.11713-21.89752Z"></path><path class="cls-5" d="M0,84.87192V10.93473H49.32886c5.02097,.00001,9.09128,4.0703,9.0913,9.09128v6.60011H17.77516v17.485H54.88916v15.69128H17.77516v18.46942H59.17311v15.6914H9.09129c-5.02098,0-9.09128-4.07031-9.09129-9.09129Z"></path><path class="cls-5" d="M77.98649,84.87192V10.93473h34.10324c3.22945-.01341,6.4542,.24795,9.63935,.78124,3.07351,.53477,6.06874,1.44899,8.91701,2.72171,2.77003,1.19801,5.30797,2.87352,7.498,4.95006,2.21043,2.1996,3.92744,4.84444,5.03694,7.75876,1.32646,3.45277,1.97539,7.12875,1.91127,10.827,0,6.65195-1.65002,11.97708-4.95004,15.97538-3.46558,4.10705-8.069,7.09674-13.23045,8.59252l24.78101,31.42187h-20.49699l-22.407-29.18134h-13.027v29.1813h-8.684c-5.02099,0-9.09132-4.0703-9.09133-9.09129Zm17.77529-34.797h17.196c3.56416,.14528,7.07915-.8704,10.0165-2.89432,2.62496-1.92955,3.93745-4.88271,3.93747-8.85948,0-4.01344-1.30272-6.96614-3.90817-8.85811-2.95911-1.99548-6.48-2.98976-10.0458-2.83687h-17.196v23.44878Z"></path><path class="cls-5" d="M166.39473,84.87192V10.93473h31.26511c23.89333,0,35.84016,9.30267,35.84052,27.908,0,18.60524-11.94684,27.90788-35.84052,27.90788h-13.48993v27.21261h-8.68391c-5.02097-.00002-9.09125-4.07033-9.09126-9.09129Zm17.77516-33.8126h14.35922c2.18364,.02198,4.36449-.16206,6.51357-.54967,1.84503-.34311,3.62352-.97837,5.26839-1.88186,1.58392-.86924,2.87389-2.18947,3.70615-3.79313,.91832-1.86052,1.36569-3.91809,1.3028-5.99194,.06676-2.09309-.38054-4.17063-1.30276-6.05078-.82852-1.59889-2.12019-2.91058-3.70615-3.7636-1.64163-.88207-3.40897-1.50687-5.24023-1.85255-2.15833-.38946-4.34869-.57351-6.54173-.54968h-14.35922l-.00002,24.43321Z"></path></g></g></svg> 